<svg width="50" height="50" viewBox="0 0 50 50" fill="none" xmlns="http://www.w3.org/2000/svg">
<path fill-rule="evenodd" clip-rule="evenodd" d="M14.5834 4.16667C11.8207 4.16667 9.17116 5.26413 7.21766 7.21764C5.26415 9.17114 4.16669 11.8207 4.16669 14.5833V35.4167C4.16669 38.1793 5.26415 40.8289 7.21766 42.7824C9.17116 44.7359 11.8207 45.8333 14.5834 45.8333H35.4167C38.1794 45.8333 40.8289 44.7359 42.7824 42.7824C44.7359 40.8289 45.8334 38.1793 45.8334 35.4167V14.5833C45.8334 11.8207 44.7359 9.17114 42.7824 7.21764C40.8289 5.26413 38.1794 4.16667 35.4167 4.16667H14.5834ZM32.7709 22.2583C32.958 22.0586 33.104 21.824 33.2004 21.5679C33.2969 21.3117 33.3419 21.0391 33.333 20.7656C33.3241 20.492 33.2614 20.2229 33.1485 19.9736C33.0356 19.7243 32.8747 19.4996 32.675 19.3125C32.4753 19.1254 32.2407 18.9794 31.9845 18.8829C31.7284 18.7865 31.4558 18.7414 31.1823 18.7503C30.9087 18.7592 30.6396 18.8219 30.3903 18.9348C30.141 19.0477 29.9163 19.2086 29.7292 19.4083L23.3063 26.2625L20.1334 23.4438C19.7176 23.0982 19.1839 22.9277 18.6448 22.9684C18.1057 23.009 17.6036 23.2577 17.2444 23.6617C16.8853 24.0658 16.6973 24.5936 16.7201 25.1337C16.7429 25.6738 16.9747 26.1839 17.3667 26.5562L22.0542 30.7229C22.4598 31.0832 22.9899 31.2711 23.5319 31.2466C24.0738 31.222 24.5849 30.9871 24.9563 30.5917L32.7688 22.2583H32.7709Z" fill="#4ECB71"/>
</svg>
