<svg width="2409" height="634" viewBox="0 0 2409 634" fill="none" xmlns="http://www.w3.org/2000/svg">
<path d="M305.908 222.693L199.219 222.693L199.219 512L113.525 512L113.525 222.693L8.78907 222.693L8.78906 156.531L305.908 156.531L305.908 222.693ZM444.336 516.883C403.809 516.883 371.012 504.839 345.947 480.75C320.882 456.499 308.35 425.005 308.35 386.268L308.35 379.432C308.35 352.413 313.314 328.569 323.242 307.898C333.333 287.228 347.982 271.277 367.188 260.047C386.393 248.654 409.18 242.957 435.547 242.957C472.656 242.957 501.953 254.513 523.438 277.625C544.922 300.574 555.664 332.638 555.664 373.816L555.664 405.799L392.09 405.799C395.02 420.61 401.449 432.247 411.377 440.711C421.305 449.174 434.163 453.406 449.951 453.406C475.993 453.406 496.338 444.292 510.986 426.062L548.584 470.496C538.33 484.656 523.763 495.968 504.883 504.432C486.165 512.732 465.983 516.883 444.336 516.883ZM435.059 306.434C410.97 306.434 396.647 322.384 392.09 354.285L475.098 354.285L475.098 347.937C475.423 334.754 472.087 324.581 465.088 317.42C458.089 310.096 448.079 306.434 435.059 306.434ZM700.684 453.406C712.24 453.406 721.191 450.314 727.539 444.129C733.887 437.781 736.979 428.992 736.816 417.762L813.965 417.762C813.965 446.733 803.548 470.496 782.715 489.051C762.044 507.605 735.352 516.883 702.637 516.883C664.225 516.883 633.952 504.839 611.816 480.75C589.681 456.661 578.613 423.296 578.613 380.652L578.613 377.234C578.613 350.542 583.496 327.023 593.262 306.678C603.19 286.17 617.432 270.464 635.986 259.559C654.541 248.491 676.514 242.957 701.904 242.957C736.247 242.957 763.509 252.479 783.691 271.521C803.874 290.564 813.965 316.362 813.965 348.914L736.816 348.914C736.816 335.242 733.48 324.744 726.807 317.42C720.133 310.096 711.182 306.434 699.951 306.434C678.63 306.434 666.178 320.024 662.598 347.205C661.458 355.831 660.889 367.713 660.889 382.85C660.889 409.38 664.063 427.771 670.41 438.025C676.758 448.279 686.849 453.406 700.684 453.406ZM929.199 276.16C946.777 254.025 969.238 242.957 996.582 242.957C1025.72 242.957 1047.69 251.583 1062.5 268.836C1077.31 286.089 1084.88 311.561 1085.21 345.252L1085.21 512L1002.69 512L1002.69 347.205C1002.69 333.208 999.837 322.954 994.141 316.443C988.444 309.77 978.76 306.434 965.088 306.434C948.161 306.434 936.198 311.805 929.199 322.547L929.199 512L846.924 512L846.924 137L929.199 137L929.199 276.16ZM1220.46 391.395L1220.46 512L1134.77 512L1134.77 156.531L1276.61 156.531C1303.79 156.531 1327.8 161.577 1348.63 171.668C1369.63 181.596 1385.82 195.838 1397.22 214.393C1408.77 232.784 1414.55 253.699 1414.55 277.137C1414.55 311.805 1402.1 339.555 1377.2 360.389C1352.46 381.059 1318.44 391.395 1275.15 391.395L1220.46 391.395ZM1220.46 325.232L1276.61 325.232C1293.21 325.232 1305.83 321.082 1314.45 312.781C1323.24 304.48 1327.64 292.762 1327.64 277.625C1327.64 261.023 1323.16 247.758 1314.21 237.83C1305.26 227.902 1293.05 222.856 1277.59 222.693L1220.46 222.693L1220.46 325.232ZM1602.54 512C1599.61 506.629 1597.01 498.735 1594.73 488.318C1579.59 507.361 1558.43 516.883 1531.25 516.883C1506.35 516.883 1485.19 509.396 1467.77 494.422C1450.36 479.285 1441.65 460.324 1441.65 437.537C1441.65 408.891 1452.23 387.244 1473.39 372.596C1494.55 357.947 1525.31 350.623 1565.67 350.623L1591.06 350.623L1591.06 336.707C1591.06 312.456 1580.57 300.33 1559.57 300.33C1540.04 300.33 1530.27 309.933 1530.27 329.139L1448 329.139C1448 303.585 1458.82 282.833 1480.47 266.883C1502.28 250.932 1530.03 242.957 1563.72 242.957C1597.41 242.957 1624.02 251.176 1643.55 267.615C1663.09 284.054 1673.1 306.596 1673.58 335.242L1673.58 452.186C1673.91 476.437 1677.65 494.992 1684.81 507.85L1684.81 512L1602.54 512ZM1551.03 458.289C1561.28 458.289 1569.74 456.092 1576.42 451.697C1583.25 447.303 1588.13 442.339 1591.06 436.805L1591.06 394.568L1567.14 394.568C1538.49 394.568 1524.17 407.426 1524.17 433.143C1524.17 440.63 1526.69 446.733 1531.74 451.453C1536.78 456.01 1543.21 458.289 1551.03 458.289ZM1806.15 512L1723.63 512L1723.63 137L1806.15 137L1806.15 512Z" fill="black"/>
<path d="M2352.68 212.48C2347.56 189.44 2337.32 166.4 2324.52 145.92L2350.12 92.16L2314.28 56.32L2260.52 81.92C2240.04 69.12 2219.56 61.44 2196.52 56.32L2178.6 0H2127.4L2106.92 56.32C2083.88 61.44 2063.4 71.68 2042.92 84.48L1989.16 58.88L1953.32 92.16L1978.92 145.92C1966.12 166.4 1958.44 186.88 1953.32 209.92L1897 230.4V281.6L1953.32 302.08C1958.44 325.12 1968.68 348.16 1978.92 366.08L1953.32 419.84L1989.16 455.68L2042.92 430.08C2063.4 442.88 2083.88 453.12 2106.92 458.24L2127.4 512H2178.6L2199.08 455.68C2206.76 453.12 2217 450.56 2224.68 448L2183.72 407.04C2086.44 424.96 1999.4 353.28 1999.4 256C1999.4 171.52 2068.52 102.4 2153 102.4C2247.72 102.4 2319.4 186.88 2304.04 276.48L2347.56 320C2350.12 312.32 2352.68 307.2 2352.68 299.52L2409 281.6V230.4L2352.68 212.48Z" fill="black"/>
<path d="M2398.76 445.441L2247.72 294.401C2283.56 215.041 2209.32 130.561 2127.4 153.601L2173.48 199.681C2193.96 220.161 2193.96 253.441 2173.48 271.361C2155.56 291.841 2119.72 291.841 2101.8 271.361L2055.72 227.841C2032.68 299.521 2106.92 381.441 2191.4 348.161L2342.44 499.201C2357.8 514.561 2380.84 514.561 2396.2 499.201C2411.56 486.401 2411.56 460.801 2398.76 445.441Z" fill="black"/>
</svg>
